<?xml version="1.0" encoding="UTF-8" standalone="no"?>
<!DOCTYPE svg PUBLIC "-//W3C//DTD SVG 1.1//EN" "http://www.w3.org/Graphics/SVG/1.1/DTD/svg11.dtd">
<!-- Created with Vectornator (http://vectornator.io/) -->
<svg height="100%" stroke-miterlimit="10" style="fill-rule:nonzero;clip-rule:evenodd;stroke-linecap:round;stroke-linejoin:round;" version="1.1" viewBox="0 0 1024 1024" width="100%" xml:space="preserve" xmlns="http://www.w3.org/2000/svg" xmlns:vectornator="http://vectornator.io" xmlns:xlink="http://www.w3.org/1999/xlink">
<defs/>
<g id="Layer-1" vectornator:layerName="Layer 1">
<path d="M718.927 441.592C849.435 539.823 917.762 648.221 878.166 711.596C826.85 793.719 613.435 768.633 401.45 655.615C189.466 542.596 59.2442 384.423 110.561 302.299C159.447 224.137 355.423 242.885 556.973 342.701" fill="#ace3ff" fill-rule="nonzero" opacity="1" stroke="none"/>
<path d="M678.903 600.69C834.997 495.725 921.907 371.747 878.023 302.299C826.707 220.176 613.292 245.262 401.308 358.28C189.323 471.299 59.2442 629.472 110.561 711.596C159.733 790.815 358.282 770.482 561.404 668.95" fill="#c5e4fa" fill-rule="nonzero" opacity="1" stroke="none"/>
<path d="M308.537 471.035C317.543 261.765 397.162 97.6506 494.364 97.6506C596.997 97.6506 680.19 280.91 680.19 506.948C680.19 732.985 596.997 916.244 494.364 916.244C406.739 916.244 333.409 782.893 313.683 603.33" fill="#e3f2ff" fill-rule="nonzero" opacity="1" stroke="none"/>
<path d="M494.364 414.526C439.102 414.526 394.303 455.904 394.303 506.947C394.303 557.991 439.102 599.369 494.364 599.369C549.625 599.369 594.424 557.991 594.424 506.948C594.424 455.904 549.625 414.526 494.364 414.526Z" fill="#97e0bb" fill-rule="nonzero" opacity="1" stroke="none"/>
<path d="M494.364 506.948C469.739 507.44 445.386 502.124 423.607 491.5C417.389 488.4 409.857 488.583 403.825 491.98C397.792 495.378 394.167 501.479 394.303 508.004C394.303 509.852 394.303 511.745 394.303 513.681C398.791 561.782 442.097 598.868 494.364 599.369C549.625 599.369 594.424 557.991 594.424 506.948L594.424 506.948C594.104 500.79 590.411 495.207 584.625 492.135C578.839 489.062 571.758 488.922 565.835 491.764C543.819 502.412 519.204 507.641 494.364 506.948Z" fill="#72caaf" fill-rule="nonzero" opacity="1" stroke="none"/>
<path d="M594.424 137.26C578.635 137.26 565.835 149.082 565.835 163.666C565.835 178.25 578.635 190.073 594.424 190.073C610.213 190.073 623.013 178.25 623.013 163.666C623.013 149.082 610.213 137.26 594.424 137.26Z" fill="#f283a5" fill-rule="nonzero" opacity="1" stroke="none"/>
<path d="M765.956 731.401C750.167 731.401 737.367 743.223 737.367 757.807C737.367 772.391 750.167 784.213 765.956 784.213C781.745 784.213 794.545 772.391 794.545 757.807C794.545 743.223 781.745 731.401 765.956 731.401Z" fill="#85cbf8" fill-rule="nonzero" opacity="1" stroke="none"/>
<path d="M208.477 731.401C192.688 731.401 179.888 743.223 179.888 757.807C179.888 772.391 192.688 784.213 208.477 784.213C224.266 784.213 237.066 772.391 237.066 757.807C237.066 743.223 224.266 731.401 208.477 731.401Z" fill="#97e0bb" fill-rule="nonzero" opacity="1" stroke="none"/>
<path d="M494.364 401.323C431.207 401.323 380.009 448.612 380.009 506.948C380.009 565.283 431.207 612.573 494.364 612.573C557.52 612.573 608.718 565.283 608.718 506.947C608.718 448.612 557.52 401.323 494.364 401.323ZM494.364 586.166C446.996 586.166 408.598 550.699 408.598 506.948C408.598 463.196 446.996 427.729 494.364 427.729C541.731 427.729 580.13 463.196 580.13 506.948C580.13 550.699 541.731 586.166 494.364 586.166ZM308.537 504.835C300.643 504.835 294.243 510.746 294.243 518.038C294.243 527.632 294.481 537.095 294.958 546.425C294.958 553.717 301.357 559.628 309.252 559.628L309.252 559.628C317.147 559.628 323.546 553.717 323.546 546.425C323.546 537.623 323.308 528.381 322.832 518.698C323.028 515.084 321.608 511.553 318.906 508.933C316.204 506.312 312.456 504.83 308.537 504.835ZM607.861 354.187C601.181 351.399 593.3 353.729 589.616 359.583C585.932 365.436 587.638 372.915 593.566 376.897C603.096 382.002 612.244 387.195 621.011 392.476C627.613 395.955 636.008 394.053 640.118 388.148C644.228 382.242 642.616 374.399 636.449 370.295C626.92 364.574 617.39 359.205 607.861 354.187ZM619.01 622.343C610.91 627.096 602.619 631.805 594.138 636.47C588.21 640.452 586.504 647.931 590.188 653.784C593.872 659.637 601.753 661.968 608.432 659.18C617.104 654.426 625.633 649.585 634.019 644.656C640.687 640.754 642.669 632.598 638.446 626.438C634.224 620.278 625.395 618.445 618.724 622.343L619.01 622.343Z" fill="#8d6c9f" fill-rule="nonzero" opacity="1" stroke="none"/>
<path d="M890.459 295.698C861.871 251.071 794.259 232.719 698.201 244.073C683.906 245.79 669.612 248.166 654.46 251.071C647.03 229.726 637.953 208.899 627.301 188.752C633.683 181.714 637.22 172.847 637.307 163.666C637.307 141.791 618.108 124.057 594.424 124.057C590.251 124.117 586.109 124.74 582.131 125.905C560.625 101.146 528.686 86.0593 494.364 84.4475C428.896 84.4475 370.861 149.011 334.41 250.939C220.627 229.682 131.145 242.885 98.2677 295.698C65.3907 348.51 96.8383 427.729 174.028 506.948C96.8383 586.166 65.5337 665.385 98.2677 718.198C113.573 740.805 137.661 757.15 165.594 763.88C168.681 781.333 183.92 794.781 202.935 796.834C221.951 798.888 240.137 789.05 247.501 772.726C276.351 771.793 305.054 768.479 333.266 762.824C371.146 865.544 429.467 929.448 494.364 929.448C559.26 929.448 618.438 864.62 654.603 762.824C668.897 765.729 684.049 768.105 697.486 769.822C707.063 771.01 716.355 771.67 726.075 772.066C732.959 787.869 750.011 797.837 768.42 796.819C786.829 795.801 802.472 784.026 807.266 767.577C841.382 762.902 871.681 744.918 890.459 718.198C922.908 666.309 893.175 588.411 814.557 506.948C893.318 426.276 923.193 348.51 890.459 295.698ZM608.718 163.666C608.718 170.958 602.318 176.869 594.424 176.869C586.529 176.869 580.13 170.958 580.13 163.666C580.13 156.374 586.529 150.463 594.424 150.463C602.318 150.463 608.718 156.374 608.718 163.666ZM494.364 110.854C519.55 112.297 542.953 123.345 558.974 141.353C549.396 154.513 549.238 171.682 558.574 184.99C567.91 198.298 584.939 205.181 601.857 202.483C610.978 220.128 618.857 238.298 625.443 256.88C580.548 267.891 536.708 282.286 494.364 299.922C451.523 282.184 407.151 267.787 361.712 256.88C394.303 167.759 441.76 110.854 494.364 110.854ZM634.591 731.401C598.689 722.828 563.486 711.93 529.242 698.789C542.25 692.979 555.257 686.906 568.408 680.304C575.355 676.659 577.787 668.501 573.84 662.084C569.893 655.667 561.061 653.421 554.114 657.067C533.816 667.233 513.661 676.212 493.506 684.662C464.917 672.647 436.329 659.047 407.74 643.996C336.73 606.542 271.489 560.447 213.766 506.948C239.729 482.55 267.478 459.831 296.816 438.951C296.101 449.382 295.387 459.812 294.958 470.507C294.958 477.799 301.358 483.71 309.252 483.71C317.147 483.71 323.546 477.799 323.546 470.507C324.309 452.287 325.548 434.462 327.263 417.034C352.85 401.323 380.009 385.083 408.598 369.767C437.186 354.451 465.775 340.984 494.364 328.969C512.851 336.803 531.481 345.297 550.254 354.451C554.782 357.068 560.512 357.136 565.11 354.626C569.708 352.115 572.408 347.447 572.109 342.521C571.811 337.595 568.564 333.234 563.691 331.214C552.113 325.537 540.677 320.123 529.242 314.974C563.49 301.878 598.693 291.024 634.591 282.494C655.905 355.672 666.435 431.17 665.896 506.948C666.428 582.725 655.898 658.222 634.591 731.401ZM459.342 698.789C425.041 711.909 389.792 722.806 353.85 731.401C343.961 698.511 336.558 665.026 331.694 631.189C351.611 643.424 372.481 655.351 394.303 666.969C415.888 678.588 437.186 689.019 459.342 698.789ZM331.551 382.97C336.382 349.051 343.737 315.48 353.564 282.494C389.695 291.026 425.136 301.879 459.628 314.974C437.186 324.876 415.888 335.307 394.303 346.926C372.719 358.544 351.42 370.559 331.551 382.97ZM122.711 308.901C148.584 267.575 226.488 257.937 325.69 276.685C313.331 318.16 304.725 360.511 299.961 403.303C262.246 428.59 226.866 456.721 194.183 487.407C126.856 417.694 96.8383 350.755 122.711 308.901ZM208.477 771.01C200.582 771.01 194.183 765.099 194.183 757.807C194.183 750.515 200.582 744.604 208.477 744.604C216.372 744.604 222.771 750.515 222.771 757.807C222.771 765.099 216.372 771.01 208.477 771.01ZM249.216 746.056C243.984 731.289 229.889 720.711 213.169 719.004C196.449 717.298 180.193 724.778 171.598 738.134C151.399 733.103 133.964 721.284 122.711 704.994C96.5524 663.14 126.57 596.201 194.183 526.488C227.002 557.191 262.527 585.323 300.39 610.592C305.168 653.338 313.774 695.645 326.119 737.078C300.8 742.043 275.076 745.046 249.216 746.056ZM494.364 903.041C442.761 903.041 394.303 846.4 362.284 756.883C407.526 745.943 451.705 731.546 494.364 713.84C536.985 731.516 581.114 745.912 626.3 756.883C594.424 845.476 546.681 903.041 494.364 903.041ZM765.956 771.01C758.061 771.01 751.662 765.099 751.662 757.807C751.662 750.515 758.061 744.604 765.956 744.604C773.85 744.604 780.25 750.515 780.25 757.807C780.25 765.099 773.85 771.01 765.956 771.01ZM866.016 704.994C851.935 724.305 829.852 737.394 804.979 741.171C797.416 726.629 781.059 717.778 763.627 718.793C746.195 719.808 731.172 730.488 725.646 745.792C718.07 745.792 710.208 744.736 702.203 743.68C689.624 742.227 676.473 740.115 663.323 737.606C675.704 695.957 684.311 653.428 689.052 610.46C726.616 585.1 761.895 556.974 794.545 526.356C863.443 597.389 891.317 663.933 866.016 704.994ZM794.545 487.539C773.453 467.69 751.166 448.956 727.79 431.426C723.866 428.167 718.318 427.17 713.357 428.832C708.397 430.495 704.832 434.546 704.083 439.37C703.334 444.195 705.524 449.008 709.779 451.891C732.711 469.085 754.569 487.467 775.247 506.948C749.225 531.426 721.378 554.191 691.911 575.076C693.627 552.894 694.484 530.185 694.484 506.948C695.234 429.099 684.608 351.513 662.894 276.289C676.187 273.78 689.195 271.668 701.774 270.215C784.539 260.445 844.718 274.573 865.73 308.901C891.46 350.094 862.443 417.034 794.545 487.539Z" fill="#8d6c9f" fill-rule="nonzero" opacity="1" stroke="none"/>
<path d="M764.955 216.479L765.956 216.479C773.425 216.501 779.653 211.208 780.25 204.332L782.251 181.226C782.883 173.935 776.995 167.55 769.101 166.967C761.206 166.384 754.294 171.822 753.663 179.114L751.662 201.823C751.223 205.413 752.397 209.012 754.909 211.782C757.421 214.551 761.052 216.249 764.955 216.479ZM832.139 226.777C833.569 227.211 835.064 227.434 836.57 227.437C843.015 227.729 848.872 223.996 850.864 218.327L858.726 196.146C860.535 191.609 859.514 186.521 856.066 182.884C852.617 179.247 847.291 177.642 842.184 178.7C837.076 179.759 833.003 183.311 831.567 187.96L823.133 210.141C820.679 217.03 824.7 224.457 832.139 226.777ZM923.908 205.52C917.193 201.756 908.448 203.702 904.325 209.877L890.888 229.682C887.435 233.73 886.847 239.265 889.384 243.856C891.921 248.447 897.119 251.254 902.695 251.046C908.27 250.837 913.205 247.65 915.332 242.885L928.768 222.552C932.084 216.56 929.99 209.224 923.908 205.52ZM694.484 216.479L696.771 216.479C704.465 215.391 709.802 208.818 708.779 201.691L704.776 178.586C703.552 171.294 696.161 166.299 688.266 167.429C680.372 168.559 674.964 175.387 676.187 182.679L680.19 205.784C681.509 212.084 687.539 216.595 694.484 216.479ZM202.045 582.865C197.833 580.131 192.354 579.699 187.701 581.736C183.049 583.773 179.942 587.963 179.567 592.706C179.193 597.449 181.609 602.012 185.892 604.651L206.762 617.854C213.246 621.285 221.498 619.524 225.695 613.813C229.892 608.102 228.618 600.368 222.771 596.069L202.045 582.865ZM182.318 650.201L158.304 641.619C150.922 638.994 142.635 642.393 139.793 649.211C136.951 656.029 140.631 663.684 148.012 666.309L172.026 674.891C179.408 677.516 187.696 674.117 190.538 667.299C193.38 660.482 189.7 652.827 182.318 650.201Z" fill="#8d6c9f" fill-rule="nonzero" opacity="1" stroke="none"/>
<path d="M215.624 308.901L233.349 338.74L265.654 355.112L233.349 371.483L215.624 401.323L197.899 371.483L165.594 355.112L197.899 338.74L215.624 308.901ZM500.367 176.869L512.517 197.466L534.959 208.821L512.517 220.044L500.367 240.773L488.074 220.044L465.775 208.821L488.074 197.466L500.367 176.869ZM770.959 625.776L779.393 639.771L794.545 647.561L779.393 655.219L770.959 669.346L762.668 655.219L747.373 647.561L762.668 639.771L770.959 625.776ZM470.778 771.01L479.069 785.005L494.364 792.795L479.069 800.453L470.778 814.58L462.487 800.453L447.192 792.795L462.487 785.005L470.778 771.01Z" fill="#ffffff" fill-rule="nonzero" opacity="1" stroke="none"/>
</g>
</svg>
