<?xml version="1.0" encoding="UTF-8" standalone="no"?>
<!DOCTYPE svg PUBLIC "-//W3C//DTD SVG 1.1//EN" "http://www.w3.org/Graphics/SVG/1.1/DTD/svg11.dtd">
<!-- Created with Vectornator (http://vectornator.io/) -->
<svg height="100%" stroke-miterlimit="10" style="fill-rule:nonzero;clip-rule:evenodd;stroke-linecap:round;stroke-linejoin:round;" version="1.1" viewBox="0 0 1024 1024" width="100%" xml:space="preserve" xmlns="http://www.w3.org/2000/svg" xmlns:vectornator="http://vectornator.io" xmlns:xlink="http://www.w3.org/1999/xlink">
<defs/>
<g id="Layer-1" vectornator:layerName="Layer 1">
<path d="M356.533 698.07L794.006 698.07L794.006 805.17L356.533 805.17L356.533 698.07ZM794.006 644.52L684.637 644.52L356.533 644.52L356.533 216.119L739.322 216.119L794.006 349.994L794.006 644.52Z" fill="#e6e6ef" fill-rule="nonzero" opacity="1" stroke="none"/>
<path d="M794.006 660.585L684.637 660.585C675.341 660.585 668.232 653.623 668.232 644.52C668.232 635.416 675.341 628.455 684.637 628.455L777.6 628.455L777.6 353.207L728.385 232.184L684.637 232.184C675.341 232.184 668.232 225.223 668.232 216.119C668.232 207.016 675.341 200.054 684.637 200.054L739.322 200.054C745.884 200.054 751.899 203.803 754.633 210.229L809.317 344.104C809.864 346.246 810.411 347.852 810.411 349.994L810.411 644.52C810.411 653.623 803.302 660.585 794.006 660.585Z" fill="#444b54" fill-rule="nonzero" opacity="1" stroke="none"/>
<path d="M629.953 644.52L219.823 644.52C204.512 644.52 192.481 632.739 192.481 617.745L192.481 242.894C192.481 227.9 204.512 216.119 219.823 216.119L629.953 216.119L629.953 644.52Z" fill="#ffffff" fill-rule="nonzero" opacity="1" stroke="none"/>
<path d="M602.611 660.585L219.823 660.585C195.762 660.585 176.076 641.307 176.076 617.745L176.076 242.894C176.076 219.332 195.762 200.054 219.823 200.054L602.611 200.054C626.672 200.054 646.359 219.332 646.359 242.894L646.359 617.745C646.359 641.307 626.672 660.585 602.611 660.585ZM219.823 232.184C213.808 232.184 208.886 237.004 208.886 242.894L208.886 617.745C208.886 623.635 213.808 628.455 219.823 628.455L602.611 628.455C608.627 628.455 613.548 623.635 613.548 617.745L613.548 242.894C613.548 237.004 608.627 232.184 602.611 232.184L219.823 232.184Z" fill="#444b54" fill-rule="nonzero" opacity="1" stroke="none"/>
<path d="M236.228 258.959L586.206 258.959L586.206 590.97L236.228 590.97L236.228 258.959Z" fill="#e6e6ef" fill-rule="nonzero" opacity="1" stroke="none"/>
<path d="M586.206 558.839L296.381 558.839C281.069 558.839 269.039 547.058 269.039 532.064L269.039 317.864C269.039 302.87 281.069 291.089 296.381 291.089L586.206 291.089L586.206 558.839Z" fill="#6e6e8e" fill-rule="nonzero" opacity="1" stroke="none"/>
<path d="M192.481 698.07L629.953 698.07L629.953 805.17L192.481 805.17L192.481 698.07Z" fill="#ffffff" fill-rule="nonzero" opacity="1" stroke="none"/>
<path d="M192.481 821.235C183.185 821.235 176.076 814.273 176.076 805.17L176.076 698.07C176.076 688.966 183.185 682.005 192.481 682.005C201.777 682.005 208.886 688.966 208.886 698.07L208.886 805.17C208.886 814.273 201.777 821.235 192.481 821.235ZM794.006 821.235C784.709 821.235 777.6 814.273 777.6 805.17L777.6 698.07C777.6 688.966 784.709 682.005 794.006 682.005C803.302 682.005 810.411 688.966 810.411 698.07L810.411 805.17C810.411 814.273 803.302 821.235 794.006 821.235Z" fill="#444b54" fill-rule="nonzero" opacity="1" stroke="none"/>
<path d="M247.165 730.2L482.853 730.2L482.853 762.33L247.165 762.33L247.165 730.2ZM515.664 730.2L548.474 730.2L548.474 762.33L515.664 762.33L515.664 730.2Z" fill="#6e6e8e" fill-rule="nonzero" opacity="1" stroke="none"/>
<path d="M444.028 376.769L553.396 376.769L553.396 408.899L444.028 408.899L444.028 376.769ZM411.217 408.899L378.407 408.899L378.407 376.769L411.217 376.769M378.407 323.219L487.775 323.219L487.775 355.349L378.407 355.349L378.407 323.219ZM520.585 355.349L553.396 355.349L553.396 323.219L520.585 323.219" fill="#39d3d3" fill-rule="nonzero" opacity="1" stroke="none"/>
<path d="M848.69 821.235L192.481 821.235C183.185 821.235 176.076 814.273 176.076 805.17C176.076 796.066 183.185 789.105 192.481 789.105L848.69 789.105C857.986 789.105 865.095 796.066 865.095 805.17C865.095 814.273 857.986 821.235 848.69 821.235Z" fill="#444b54" fill-rule="nonzero" opacity="1" stroke="none"/>
</g>
</svg>
